<?xml version="1.0" encoding="UTF-8"?>
<svg width="24px" height="24px" viewBox="0 0 24 24" version="1.1" xmlns="http://www.w3.org/2000/svg" xmlns:xlink="http://www.w3.org/1999/xlink">
    <title>Fill 1</title>
    <g id="Page-1" stroke="none" stroke-width="1" fill="none" fill-rule="evenodd">
        <g id="Leamo_HomePage_Mobile" transform="translate(-274.331434, -3105.552289)" fill="#FFFFFF">
            <path d="M289.143934,3118.44291 C289.831434,3120.41167 290.315804,3122.23978 290.597054,3123.92729 C292.440814,3122.67728 293.550184,3120.95855 293.925184,3118.77104 C292.393924,3118.30229 290.800194,3118.19291 289.143934,3118.44291 Z M287.643934,3118.81791 C286.831434,3119.09917 286.073624,3119.45073 285.370494,3119.8726 C284.667364,3120.29448 284.104874,3120.69291 283.682996,3121.06791 C283.261119,3121.44292 282.886123,3121.84135 282.557996,3122.26323 C282.22987,3122.6851 282.011122,3122.98198 281.901746,3123.15385 C281.792371,3123.32573 281.706434,3123.47416 281.643934,3123.59916 C283.018941,3124.69292 284.581424,3125.23979 286.331434,3125.23979 C287.362694,3125.23979 288.362684,3125.03667 289.331434,3124.63041 C289.018934,3122.75541 288.472064,3120.81792 287.690814,3118.81791 C287.690814,3118.81791 287.675184,3118.81791 287.643934,3118.81791 Z M287.972054,3115.72417 C288.159564,3116.09917 288.331434,3116.47416 288.487684,3116.84917 C288.550184,3116.97417 288.612684,3117.09916 288.675184,3117.22417 C290.425194,3117.00541 292.206424,3117.09916 294.018934,3117.50541 C293.987684,3115.69291 293.409564,3114.09917 292.284554,3112.72417 C291.378304,3113.94292 289.940814,3114.94291 287.972054,3115.72417 Z M286.847054,3117.64604 C287.003314,3117.58354 287.112684,3117.55229 287.175184,3117.55229 C286.987684,3117.14604 286.784564,3116.70854 286.565814,3116.23979 C283.940796,3117.02104 281.300197,3117.38042 278.643934,3117.31791 C278.643934,3117.44292 278.643934,3117.52104 278.643934,3117.55229 C278.643934,3119.52105 279.300177,3121.23979 280.612684,3122.70854 C280.737685,3122.48979 280.91737,3122.22417 281.151746,3121.91166 C281.386123,3121.59916 281.768931,3121.14604 282.300184,3120.55229 C282.831437,3119.95854 283.495493,3119.39604 284.292372,3118.86479 C285.089254,3118.33354 285.940804,3117.92729 286.847054,3117.64604 Z M285.909554,3115.06791 C285.034554,3113.47416 284.081439,3111.9898 283.050184,3110.61479 C281.987679,3111.11479 281.081438,3111.84135 280.331434,3112.79448 C279.58143,3113.74761 279.081435,3114.81791 278.831434,3116.00541 C281.081445,3116.03667 283.440797,3115.72417 285.909554,3115.06791 Z M291.393934,3111.83354 C289.956424,3110.55228 288.268944,3109.91167 286.331434,3109.91167 C285.706434,3109.91167 285.112684,3109.97416 284.550184,3110.09917 C285.581444,3111.50542 286.534554,3113.00541 287.409554,3114.59917 C289.284564,3113.88041 290.612684,3112.95855 291.393934,3111.83354 Z M294.815814,3109.06791 C292.472044,3106.72415 289.643954,3105.55229 286.331434,3105.55229 C283.018917,3105.55229 280.190821,3106.72415 277.847059,3109.06791 C275.503297,3111.41168 274.331434,3114.23977 274.331434,3117.55229 C274.331434,3120.86481 275.503297,3123.6929 277.847059,3126.03666 C280.190821,3128.38043 283.018917,3129.55229 286.331434,3129.55229 C289.643954,3129.55229 292.472044,3128.38043 294.815814,3126.03666 C297.159574,3123.6929 298.331434,3120.86481 298.331434,3117.55229 C298.331434,3114.23977 297.159574,3111.41168 294.815814,3109.06791 Z M292.659554,3123.92729 C290.909554,3125.6773 288.800194,3126.55229 286.331434,3126.55229 C283.862672,3126.55229 281.745505,3125.66949 279.979872,3123.90385 C278.214238,3122.13822 277.331434,3120.02105 277.331434,3117.55229 C277.331434,3115.08353 278.214238,3112.96636 279.979872,3111.20073 C281.745505,3109.43509 283.862672,3108.55229 286.331434,3108.55229 C288.800194,3108.55229 290.917364,3109.43509 292.682994,3111.20073 C294.448634,3112.96636 295.331434,3115.08353 295.331434,3117.55229 C295.331434,3120.02105 294.440814,3122.14603 292.659554,3123.92729 Z" id="Fill-1"></path>
        </g>
    </g>
</svg>