<?xml version="1.0" encoding="UTF-8"?>
<svg width="24px" height="24px" viewBox="0 0 24 24" version="1.1" xmlns="http://www.w3.org/2000/svg" xmlns:xlink="http://www.w3.org/1999/xlink">
    <title>Fill 1</title>
    <g id="Page-1" stroke="none" stroke-width="1" fill="none" fill-rule="evenodd">
        <g id="Leamo_HomePage_Mobile" transform="translate(-188.331434, -3105.552289)" fill="#FFFFFF">
            <path d="M208.815814,3109.06791 C206.472044,3106.72415 203.643954,3105.55229 200.331434,3105.55229 C197.018917,3105.55229 194.190821,3106.72415 191.847059,3109.06791 C189.503297,3111.41168 188.331434,3114.23977 188.331434,3117.55229 C188.331434,3120.86481 189.503297,3123.6929 191.847059,3126.03666 C194.190821,3128.38043 197.018917,3129.55229 200.331434,3129.55229 C203.643954,3129.55229 206.472044,3128.38043 208.815814,3126.03666 C211.159574,3123.6929 212.331434,3120.86481 212.331434,3117.55229 C212.331434,3114.23977 211.159574,3111.41168 208.815814,3109.06791 Z M203.425184,3117.55229 L201.456434,3117.55229 L201.456434,3124.77104 L198.784554,3124.77104 L198.784554,3117.55229 L196.956434,3117.55229 L196.956434,3115.06791 L198.784554,3115.06791 L198.784554,3113.61479 C198.784554,3112.52103 198.987684,3111.70073 199.393934,3111.15385 C199.800184,3110.60697 200.565804,3110.33354 201.690814,3110.33354 L203.659554,3110.33354 L203.659554,3112.81791 L202.440814,3112.81791 C202.003304,3112.81791 201.729874,3112.89604 201.620494,3113.05229 C201.511124,3113.20854 201.456434,3113.47416 201.456434,3113.84917 L201.456434,3115.06791 L203.706434,3115.06791 L203.425184,3117.55229 Z" id="Fill-1"></path>
        </g>
    </g>
</svg>