<?xml version="1.0" encoding="UTF-8"?>
<svg width="335.622853px" height="83.4637867px" viewBox="0 0 335.622853 83.4637867" version="1.1" xmlns="http://www.w3.org/2000/svg" xmlns:xlink="http://www.w3.org/1999/xlink">
    <title>Leamo-Logo Copy</title>
    <g id="Page-1" stroke="none" stroke-width="1" fill="none" fill-rule="evenodd">
        <g id="Leamo_HomePage_Mobile" transform="translate(-9.206974, -33.002824)" fill="#000000" fill-rule="nonzero">
            <g id="Leamo-Logo-Copy" transform="translate(9.206974, 33.002824)">
                <path d="M295.181993,65.8423978 C292.964398,62.6168057 291.875761,57.8993773 291.875761,51.7304325 C291.875761,45.6421275 293.004718,40.9650191 295.262632,37.7797469 C297.520547,34.5944748 300.907419,32.9816787 305.503887,32.9816787 C310.060036,32.9816787 313.487228,34.5944748 315.745142,37.7797469 C318.003056,40.9650191 319.132014,45.6421275 319.132014,51.7304325 C319.132014,57.8187375 318.003056,62.5361659 315.745142,65.8020779 C313.487228,69.0679898 310.100356,70.7211057 305.503887,70.7211057 C300.826779,70.6807858 297.359267,69.0679898 295.181993,65.8423978 M317.922417,81.3252396 C321.672167,79.8737232 324.85744,77.7770883 327.478233,75.0353351 C330.099027,72.2935819 332.115022,68.9470301 333.526218,65.0359997 C334.937415,61.1249694 335.622853,56.6494604 335.622853,51.6901126 C335.622853,46.8114047 334.937415,42.4165355 333.566538,38.4651852 C332.195661,34.5541549 330.179666,31.2076031 327.558873,28.5061698 C324.938079,25.8047364 321.752807,23.7081016 318.003056,22.2565852 C314.253306,20.8050687 310.060036,20.0793105 305.423247,20.0793105 C300.867099,20.0793105 296.673829,20.8050687 292.964398,22.2565852 C289.214647,23.7081016 286.029375,25.8047364 283.408582,28.5061698 C280.787788,31.2076031 278.771793,34.513835 277.360597,38.4651852 C275.9494,42.3762156 275.263962,46.8114047 275.263962,51.6901126 C275.263962,61.8910475 277.884755,69.7534281 283.166662,75.2369346 C288.448569,80.7204411 295.867431,83.4621943 305.463567,83.4621943 C310.019716,83.5025142 314.212986,82.776756 317.922417,81.3252396 M181.802432,81.6881187 L197.809433,81.6881187 L197.809433,45.7630872 C197.809433,44.0293315 198.131992,42.3762156 198.77711,40.8843793 C199.422229,39.3925429 200.268947,38.1023061 201.357584,37.0539887 C202.647821,35.7637519 203.978377,34.8363942 205.308934,34.3122355 C206.639491,33.7880767 208.131327,33.5058374 209.703803,33.5058374 C210.711801,33.5058374 211.639158,33.667117 212.566516,33.9493563 C213.493874,34.2719156 214.259952,34.7960743 214.90507,35.5621524 C215.550189,36.3282305 216.074348,37.3765479 216.437227,38.7071046 C216.800106,40.0376613 217.001705,41.7714171 217.001705,43.9083718 L217.001705,81.6881187 L233.008706,81.6881187 L233.008706,45.0776489 C233.008706,43.5454927 233.331265,42.0939763 233.976383,40.7230997 C234.621502,39.352223 235.46822,38.142626 236.556857,37.0539887 C237.847094,35.7637519 239.177651,34.8363942 240.508207,34.3122355 C241.838764,33.7880767 243.3306,33.5058374 244.903077,33.5058374 C245.911074,33.5058374 246.838432,33.667117 247.765789,33.9493563 C248.693147,34.2719156 249.459225,34.7960743 250.104344,35.5621524 C250.749462,36.3282305 251.273621,37.3765479 251.6365,38.7071046 C251.999379,40.0376613 252.200979,41.7714171 252.200979,43.9083718 L252.200979,81.6881187 L268.207979,81.6881187 L268.207979,41.7714171 C268.207979,34.1509558 266.675823,28.6271295 263.571191,25.2402578 C260.466558,21.8533862 255.82977,20.1599503 249.660825,20.1599503 C245.991714,20.1599503 242.645162,20.9663483 239.58085,22.5791444 C236.516537,24.1919404 233.613504,26.8127339 230.871751,30.4818449 C229.742794,27.1352931 227.767119,24.5548195 225.025366,22.8210638 C222.283612,21.087308 218.735461,20.2002702 214.380912,20.2002702 C211.115,20.2002702 207.970048,21.0066682 204.986375,22.6194643 C202.002702,24.2322603 199.422229,26.6917742 197.204634,30.038326 L197.204634,21.9743459 L181.641152,21.9743459 L181.641152,81.6881187 L181.802432,81.6881187 Z M157.328252,58.1009768 C157.328252,60.5604908 156.884733,62.5764858 155.957376,64.2296017 C155.030018,65.8827177 153.860741,67.2132744 152.409224,68.3019117 C149.828751,70.196947 146.441879,71.1646246 142.329249,71.1646246 C139.869735,71.1646246 137.9747,70.600146 136.603823,69.4308689 C135.232947,68.3019117 134.547508,66.7294356 134.547508,64.7537604 C134.547508,63.4635236 134.749108,62.2942465 135.111987,61.2056092 C135.474866,60.1572918 136.240944,59.1896141 137.329582,58.3832161 C138.418219,57.5768181 140.031015,56.9316997 142.08733,56.3672211 C144.143645,55.8430624 146.845078,55.4801833 150.19163,55.3189037 L157.287932,54.9560246 L157.287932,58.1009768 L157.328252,58.1009768 Z M157.650812,81.6881187 L172.770774,81.6881187 L172.770774,43.9486917 C172.770774,40.2795807 172.327255,36.9733489 171.440218,34.070316 C170.55318,31.1269633 169.141983,28.6271295 167.206628,26.5708145 C165.271273,24.5144996 162.690799,22.9420235 159.465207,21.8130663 C156.279935,20.7244289 152.368905,20.1599503 147.812756,20.1599503 C140.353574,20.1599503 134.386229,21.5711468 129.95104,24.35322 C125.515851,27.1352931 122.774097,31.651122 121.72578,37.9007066 L136.361904,39.2715832 C137.289262,34.4735151 140.918053,32.054321 147.248277,32.054321 C149.99003,32.054321 152.368905,32.7397593 154.3849,34.1106359 C156.400895,35.4815126 157.408892,37.9813464 157.408892,41.6504574 L157.408892,44.63413 L149.748111,44.9970091 C145.91772,45.1582887 142.16797,45.5211678 138.498859,46.1259663 C134.789428,46.7307648 131.483196,47.7790823 128.499523,49.2305987 C125.515851,50.6821151 123.136977,52.6981101 121.282261,55.2785838 C119.467866,57.8590574 118.540508,61.2459291 118.540508,65.3585589 C118.540508,68.5035112 119.064667,71.1646246 120.153304,73.4225391 C121.201621,75.6804535 122.653138,77.5351689 124.427213,78.9866854 C126.201289,80.4382018 128.297924,81.4865192 130.717118,82.1719575 C133.136312,82.8573958 135.636146,83.2202749 138.337579,83.2202749 C142.974368,83.2202749 146.764438,82.373557 149.707791,80.7204411 C152.651144,79.0270053 155.312257,76.8900505 157.650812,74.1886172 L157.650812,81.6881187 L157.650812,81.6881187 Z M73.5838187,45.1986086 C73.6644585,43.3842131 73.9870177,41.6907773 74.6321361,40.1183011 C75.2369346,38.545825 76.0836525,37.1749484 77.2126097,36.0056713 C78.3012471,34.8363942 79.6721237,33.9090364 81.2849197,33.1832782 C82.8977157,32.4978399 84.7524312,32.1349608 86.8893859,32.1349608 C91.1632954,32.1349608 94.3082476,33.263918 96.3242426,35.5621524 C98.3402377,37.8603867 99.3482352,41.0456589 99.3482352,45.1582887 L73.5838187,45.1582887 L73.5838187,45.1986086 Z M98.5015173,63.0200047 C97.3725601,68.3422316 93.6228093,71.0436649 87.2925849,71.0436649 C82.7364361,71.0436649 79.2689247,69.6727883 77.0110102,66.971355 C74.7127759,64.2699216 73.5031789,60.5201709 73.3418993,55.7221027 L114.750437,55.7221027 L114.750437,49.3112385 C114.750437,40.4005404 112.452203,33.3042379 107.815414,28.0223309 C103.218946,22.740424 96.3242426,20.1196304 87.1716252,20.1196304 C82.7364361,20.1196304 78.7044461,20.8453886 75.0353351,22.2162653 C71.3662241,23.6274618 68.2212719,25.7240966 65.6004784,28.4658499 C62.9796848,31.2076031 60.9233699,34.5541549 59.4718535,38.4651852 C58.020337,42.3762156 57.2945788,46.8920445 57.2945788,51.8917121 C57.2945788,61.9716873 59.7944127,69.7534281 64.7940803,75.2369346 C69.793748,80.7204411 77.2529296,83.4621943 87.1716252,83.4621943 C95.3968849,83.4621943 101.686789,81.7284386 106.001019,78.2609272 C110.315248,74.7934157 112.976362,69.7131082 114.064999,62.9796848 L98.5015173,62.9796848 L98.5015173,63.0200047 Z M0,81.6881187 L53.8673873,81.6881187 L55.6817828,67.0519948 L17.055318,67.0519948 L17.055318,7.10542736e-15 L0,7.10542736e-15 L0,81.6881187 Z" id="Shape"></path>
            </g>
        </g>
    </g>
</svg>