<?xml version="1.0" encoding="UTF-8"?>
<svg width="24px" height="24px" viewBox="0 0 24 24" version="1.1" xmlns="http://www.w3.org/2000/svg" xmlns:xlink="http://www.w3.org/1999/xlink">
    <title>Fill 1</title>
    <g id="Page-1" stroke="none" stroke-width="1" fill="none" fill-rule="evenodd">
        <g id="Leamo_HomePage_Mobile" transform="translate(-231.331434, -3105.552289)" fill="#FFFFFF">
            <path d="M251.815814,3109.06791 C249.472044,3106.72415 246.643954,3105.55229 243.331434,3105.55229 C240.018917,3105.55229 237.190821,3106.72415 234.847059,3109.06791 C232.503297,3111.41168 231.331434,3114.23977 231.331434,3117.55229 C231.331434,3120.86481 232.503297,3123.6929 234.847059,3126.03666 C237.190821,3128.38043 240.018917,3129.55229 243.331434,3129.55229 C246.643954,3129.55229 249.472044,3128.38043 251.815814,3126.03666 C254.159574,3123.6929 255.331434,3120.86481 255.331434,3117.55229 C255.331434,3114.23977 254.159574,3111.41168 251.815814,3109.06791 Z M240.331434,3123.36479 L237.331434,3123.36479 L237.331434,3112.86479 L240.331434,3112.86479 L240.331434,3123.36479 Z M239.909559,3111.83354 C239.628308,3112.08354 239.300186,3112.20854 238.925184,3112.20854 C238.550182,3112.20854 238.22206,3112.07573 237.940809,3111.8101 C237.659558,3111.54448 237.518934,3111.21635 237.518934,3110.82573 C237.518934,3110.4351 237.659558,3110.09917 237.940809,3109.81791 C238.22206,3109.53666 238.550182,3109.39604 238.925184,3109.39604 C239.300186,3109.39604 239.628308,3109.53666 239.909559,3109.81791 C240.19081,3110.09917 240.331434,3110.4351 240.331434,3110.82573 C240.331434,3111.21635 240.19081,3111.55229 239.909559,3111.83354 Z M250.831434,3123.36479 L247.831434,3123.36479 L247.831434,3116.89604 C247.831434,3116.02104 247.440814,3115.58354 246.659554,3115.58354 C246.222054,3115.58354 245.847064,3115.69291 245.534554,3115.91167 C245.222054,3116.13042 245.034564,3116.34916 244.972054,3116.56791 L244.831434,3116.89604 L244.831434,3123.36479 L241.831434,3123.36479 L241.831434,3112.86479 L244.831434,3112.86479 L244.831434,3113.84917 C245.706434,3113.19291 246.706424,3112.86479 247.831434,3112.86479 C248.550184,3112.86479 249.229864,3113.16166 249.870494,3113.75541 C250.511124,3114.34917 250.831434,3115.41166 250.831434,3116.94291 L250.831434,3123.36479 Z" id="Fill-1"></path>
        </g>
    </g>
</svg>