<?xml version="1.0" encoding="UTF-8"?>
<svg width="24px" height="24px" viewBox="0 0 24 24" version="1.1" xmlns="http://www.w3.org/2000/svg" xmlns:xlink="http://www.w3.org/1999/xlink">
    <title>Fill 1</title>
    <g id="Page-1" stroke="none" stroke-width="1" fill="none" fill-rule="evenodd">
        <g id="Leamo_HomePage_Mobile" transform="translate(-317.331434, -3105.552289)" fill="#FFFFFF">
            <path d="M337.815814,3109.06791 C335.472044,3106.72415 332.643954,3105.55229 329.331434,3105.55229 C326.018917,3105.55229 323.190821,3106.72415 320.847059,3109.06791 C318.503297,3111.41168 317.331434,3114.23977 317.331434,3117.55229 C317.331434,3120.86481 318.503297,3123.6929 320.847059,3126.03666 C323.190821,3128.38043 326.018917,3129.55229 329.331434,3129.55229 C332.643954,3129.55229 335.472044,3128.38043 337.815814,3126.03666 C340.159574,3123.6929 341.331434,3120.86481 341.331434,3117.55229 C341.331434,3114.23977 340.159574,3111.41168 337.815814,3109.06791 Z M335.284554,3114.88041 C335.315814,3115.00542 335.331434,3115.13041 335.331434,3115.25541 C335.331434,3117.38043 334.565814,3119.31009 333.034554,3121.04448 C331.503304,3122.77886 329.456444,3123.64604 326.893934,3123.64604 C325.268926,3123.64604 323.768941,3123.20854 322.393934,3122.33354 C322.612685,3122.36479 322.847058,3122.38041 323.097059,3122.38041 C324.440816,3122.38041 325.659554,3121.95854 326.753309,3121.11479 C326.097056,3121.08354 325.518937,3120.88042 325.018934,3120.50541 C324.518932,3120.13041 324.175185,3119.64604 323.987684,3119.05229 C324.175185,3119.08354 324.362683,3119.09917 324.550184,3119.09917 C324.800185,3119.09917 325.065808,3119.06792 325.347059,3119.00541 C324.659556,3118.84916 324.089249,3118.50542 323.636122,3117.97417 C323.182994,3117.44291 322.956434,3116.81792 322.956434,3116.09917 L322.956434,3116.05229 C323.362686,3116.30229 323.815807,3116.42729 324.315809,3116.42729 C323.409554,3115.83354 322.956434,3115.02105 322.956434,3113.98979 C322.956434,3113.45854 323.097058,3112.95854 323.378309,3112.48979 C324.940817,3114.42729 326.972046,3115.45854 329.472054,3115.58354 C329.409554,3115.36479 329.378314,3115.13042 329.378314,3114.88041 C329.378314,3114.06791 329.667364,3113.37261 330.245494,3112.79448 C330.823624,3112.21635 331.518934,3111.92729 332.331434,3111.92729 C333.206434,3111.92729 333.925184,3112.23979 334.487684,3112.86479 C335.175184,3112.73979 335.800184,3112.50542 336.362684,3112.16167 C336.143934,3112.88042 335.722064,3113.42729 335.097054,3113.80229 C335.659564,3113.73979 336.222054,3113.58354 336.784554,3113.33354 C336.378304,3113.92729 335.878314,3114.44291 335.284554,3114.88041 Z" id="Fill-1"></path>
        </g>
    </g>
</svg>